<svg xmlns="http://www.w3.org/2000/svg" xmlns:xlink="http://www.w3.org/1999/xlink" width="200" zoomAndPan="magnify" viewBox="0 0 150 37.5" height="50" preserveAspectRatio="xMidYMid meet" version="1.0"><defs><g/><clipPath id="99452b193e"><path d="M 4.6875 1.1875 L 38.851562 1.1875 L 38.851562 35.351562 L 4.6875 35.351562 Z M 4.6875 1.1875 " clip-rule="nonzero"/></clipPath><clipPath id="d21b89d1ab"><path d="M 21.769531 1.1875 C 12.335938 1.1875 4.6875 8.835938 4.6875 18.269531 C 4.6875 27.703125 12.335938 35.351562 21.769531 35.351562 C 31.203125 35.351562 38.851562 27.703125 38.851562 18.269531 C 38.851562 8.835938 31.203125 1.1875 21.769531 1.1875 Z M 21.769531 1.1875 " clip-rule="nonzero"/></clipPath><clipPath id="145d0348aa"><path d="M 4.6875 1.1875 L 38.734375 1.1875 L 38.734375 35.234375 L 4.6875 35.234375 Z M 4.6875 1.1875 " clip-rule="nonzero"/></clipPath><clipPath id="7bbbd65da2"><path d="M 21.769531 1.1875 C 12.335938 1.1875 4.6875 8.835938 4.6875 18.269531 C 4.6875 27.703125 12.335938 35.347656 21.769531 35.347656 C 31.203125 35.347656 38.847656 27.703125 38.847656 18.269531 C 38.847656 8.835938 31.203125 1.1875 21.769531 1.1875 Z M 21.769531 1.1875 " clip-rule="nonzero"/></clipPath><clipPath id="d62dbfa8f5"><path d="M 5.976562 2.476562 L 37.5625 2.476562 L 37.5625 34.0625 L 5.976562 34.0625 Z M 5.976562 2.476562 " clip-rule="nonzero"/></clipPath><clipPath id="e5d9a60130"><path d="M 21.769531 2.476562 C 13.046875 2.476562 5.976562 9.546875 5.976562 18.269531 C 5.976562 26.992188 13.046875 34.0625 21.769531 34.0625 C 30.492188 34.0625 37.5625 26.992188 37.5625 18.269531 C 37.5625 9.546875 30.492188 2.476562 21.769531 2.476562 Z M 21.769531 2.476562 " clip-rule="nonzero"/></clipPath><clipPath id="881a12ec88"><path d="M 16 10.210938 L 26 10.210938 L 26 26 L 16 26 Z M 16 10.210938 " clip-rule="nonzero"/></clipPath><clipPath id="4dbf5f3e85"><path d="M 7.628906 14 L 19 14 L 19 26.492188 L 7.628906 26.492188 Z M 7.628906 14 " clip-rule="nonzero"/></clipPath><clipPath id="cb4a807fc4"><path d="M 23.417969 12.078125 L 35.753906 12.078125 L 35.753906 18.191406 L 23.417969 18.191406 Z M 23.417969 12.078125 " clip-rule="nonzero"/></clipPath><clipPath id="b05a35a3ef"><path d="M 18.816406 17.664062 L 35.542969 17.664062 L 35.542969 26.320312 L 18.816406 26.320312 Z M 18.816406 17.664062 " clip-rule="nonzero"/></clipPath></defs><g clip-path="url(#99452b193e)"><g clip-path="url(#d21b89d1ab)"><path fill="#ffffff" d="M 4.6875 1.1875 L 38.851562 1.1875 L 38.851562 35.351562 L 4.6875 35.351562 Z M 4.6875 1.1875 " fill-opacity="1" fill-rule="nonzero"/></g></g><g clip-path="url(#145d0348aa)"><g clip-path="url(#7bbbd65da2)"><path stroke-linecap="butt" transform="matrix(0.740132, 0, 0, 0.740132, 4.6875, 1.18733)" fill="none" stroke-linejoin="miter" d="M 23.079723 0.00022977 C 10.33389 0.00022977 0.000000208333 10.334119 0.000000208333 23.079953 C 0.000000208333 35.825787 10.33389 46.154398 23.079723 46.154398 C 35.825557 46.154398 46.154169 35.825787 46.154169 23.079953 C 46.154169 10.334119 35.825557 0.00022977 23.079723 0.00022977 Z M 23.079723 0.00022977 " stroke="#f8b31a" stroke-width="4" stroke-opacity="1" stroke-miterlimit="4"/></g></g><g clip-path="url(#d62dbfa8f5)"><g clip-path="url(#e5d9a60130)"><path fill="#011599" d="M 5.976562 2.476562 L 37.5625 2.476562 L 37.5625 34.0625 L 5.976562 34.0625 Z M 5.976562 2.476562 " fill-opacity="1" fill-rule="nonzero"/></g></g><g clip-path="url(#881a12ec88)"><path fill="#ffffff" d="M 18.066406 25.578125 C 18.066406 25.578125 18.085938 20.949219 25.445312 14.847656 C 25.445312 14.847656 17.804688 20.144531 18.535156 10.210938 C 18.535156 10.210938 15.105469 17.113281 18.066406 25.578125 " fill-opacity="1" fill-rule="nonzero"/></g><path fill="#ffffff" d="M 21.816406 12.734375 C 22.609375 13.238281 22.804688 14.34375 22.257812 15.203125 C 21.710938 16.058594 20.625 16.347656 19.835938 15.84375 C 19.042969 15.335938 18.84375 14.230469 19.390625 13.375 C 19.9375 12.515625 21.023438 12.226562 21.816406 12.734375 " fill-opacity="1" fill-rule="nonzero"/><g clip-path="url(#4dbf5f3e85)"><path fill="#f8b31a" d="M 18.335938 26.273438 C 18.335938 26.273438 15.042969 23.550781 14.996094 14.734375 C 14.996094 14.734375 14.308594 23.28125 7.648438 16.953125 C 7.648438 16.953125 10.566406 23.433594 18.335938 26.273438 " fill-opacity="1" fill-rule="nonzero"/></g><path fill="#f8b31a" d="M 11.363281 16.085938 C 12.1875 15.816406 13.089844 16.320312 13.382812 17.214844 C 13.675781 18.105469 13.246094 19.046875 12.425781 19.316406 C 11.601562 19.585938 10.695312 19.082031 10.402344 18.191406 C 10.113281 17.296875 10.542969 16.355469 11.363281 16.085938 " fill-opacity="1" fill-rule="nonzero"/><path fill="#ffffff" d="M 33.996094 15.148438 L 28.992188 22.753906 C 23.511719 21.535156 20.023438 23.203125 19.480469 23.542969 C 19.480469 23.542969 24.339844 15.105469 33.996094 15.148438 " fill-opacity="1" fill-rule="nonzero"/><g clip-path="url(#cb4a807fc4)"><path fill="#f8b31a" d="M 35.890625 12.09375 L 34.703125 13.894531 C 29.621094 13.804688 25.761719 16.179688 23.417969 18.1875 C 25.566406 15.738281 29.730469 12.1875 35.890625 12.09375 " fill-opacity="1" fill-rule="nonzero"/></g><path fill="#ffffff" d="M 34.835938 16.707031 L 29.726562 24.28125 C 23.601562 22.820312 19.761719 24.621094 19.148438 24.941406 L 19.332031 24.160156 C 20.457031 23.621094 24.171875 22.363281 29.609375 23.664062 L 34.347656 16.597656 C 34.511719 16.628906 34.671875 16.667969 34.835938 16.707031 " fill-opacity="1" fill-rule="nonzero"/><g clip-path="url(#b05a35a3ef)"><path fill="#ffffff" d="M 35.542969 17.78125 L 30.265625 25.585938 C 23.53125 23.976562 19.367188 26.023438 18.816406 26.320312 L 19.003906 25.542969 C 20.179688 24.96875 24.191406 23.566406 30.125 24.984375 L 35.042969 17.671875 C 35.207031 17.707031 35.375 17.742188 35.542969 17.78125 " fill-opacity="1" fill-rule="nonzero"/></g><g fill="#ffffff" fill-opacity="1"><g transform="translate(43.16255, 17.061364)"><g><path d="M 10.859375 -10.484375 L 10.859375 0 L 8.875 0 L 3.640625 -6.375 L 3.640625 0 L 1.25 0 L 1.25 -10.484375 L 3.25 -10.484375 L 8.46875 -4.125 L 8.46875 -10.484375 Z M 10.859375 -10.484375 "/></g></g></g><g fill="#ffffff" fill-opacity="1"><g transform="translate(55.262806, 17.061364)"><g><path d="M 8.15625 -2.25 L 3.28125 -2.25 L 2.359375 0 L -0.140625 0 L 4.546875 -10.484375 L 6.9375 -10.484375 L 11.625 0 L 9.078125 0 Z M 7.390625 -4.09375 L 5.71875 -8.109375 L 4.0625 -4.09375 Z M 7.390625 -4.09375 "/></g></g></g><g fill="#ffffff" fill-opacity="1"><g transform="translate(66.734093, 17.061364)"><g><path d="M 6.265625 0.1875 C 5.191406 0.1875 4.222656 -0.046875 3.359375 -0.515625 C 2.492188 -0.984375 1.8125 -1.628906 1.3125 -2.453125 C 0.820312 -3.273438 0.578125 -4.207031 0.578125 -5.25 C 0.578125 -6.28125 0.820312 -7.207031 1.3125 -8.03125 C 1.8125 -8.863281 2.492188 -9.507812 3.359375 -9.96875 C 4.222656 -10.4375 5.195312 -10.671875 6.28125 -10.671875 C 7.1875 -10.671875 8.003906 -10.507812 8.734375 -10.1875 C 9.472656 -9.863281 10.09375 -9.40625 10.59375 -8.8125 L 9.03125 -7.375 C 8.320312 -8.1875 7.441406 -8.59375 6.390625 -8.59375 C 5.742188 -8.59375 5.164062 -8.453125 4.65625 -8.171875 C 4.144531 -7.890625 3.75 -7.492188 3.46875 -6.984375 C 3.1875 -6.472656 3.046875 -5.894531 3.046875 -5.25 C 3.046875 -4.59375 3.1875 -4.007812 3.46875 -3.5 C 3.75 -2.988281 4.144531 -2.59375 4.65625 -2.3125 C 5.164062 -2.03125 5.742188 -1.890625 6.390625 -1.890625 C 7.441406 -1.890625 8.320312 -2.300781 9.03125 -3.125 L 10.59375 -1.6875 C 10.09375 -1.082031 9.472656 -0.617188 8.734375 -0.296875 C 7.992188 0.0234375 7.171875 0.1875 6.265625 0.1875 Z M 6.265625 0.1875 "/></g></g></g><g fill="#ffffff" fill-opacity="1"><g transform="translate(77.711172, 17.061364)"><g><path d="M 10.859375 -10.484375 L 10.859375 0 L 8.4375 0 L 8.4375 -4.296875 L 3.671875 -4.296875 L 3.671875 0 L 1.25 0 L 1.25 -10.484375 L 3.671875 -10.484375 L 3.671875 -6.359375 L 8.4375 -6.359375 L 8.4375 -10.484375 Z M 10.859375 -10.484375 "/></g></g></g><g fill="#ffffff" fill-opacity="1"><g transform="translate(89.811429, 17.061364)"><g><path d="M 10.859375 -10.484375 L 10.859375 0 L 8.4375 0 L 8.4375 -4.296875 L 3.671875 -4.296875 L 3.671875 0 L 1.25 0 L 1.25 -10.484375 L 3.671875 -10.484375 L 3.671875 -6.359375 L 8.4375 -6.359375 L 8.4375 -10.484375 Z M 10.859375 -10.484375 "/></g></g></g><g fill="#ffffff" fill-opacity="1"><g transform="translate(101.911685, 17.061364)"><g><path d="M 1.25 -10.484375 L 3.671875 -10.484375 L 3.671875 0 L 1.25 0 Z M 1.25 -10.484375 "/></g></g></g><g fill="#ffffff" fill-opacity="1"><g transform="translate(106.823664, 17.061364)"><g><path d="M 1.25 -10.484375 L 3.671875 -10.484375 L 3.671875 -1.984375 L 8.9375 -1.984375 L 8.9375 0 L 1.25 0 Z M 1.25 -10.484375 "/></g></g></g><g fill="#ffffff" fill-opacity="1"><g transform="translate(115.868906, 17.061364)"><g><path d="M 3.671875 -8.546875 L 3.671875 -5.765625 L 8.53125 -5.765625 L 8.53125 -3.828125 L 3.671875 -3.828125 L 3.671875 0 L 1.25 0 L 1.25 -10.484375 L 9.171875 -10.484375 L 9.171875 -8.546875 Z M 3.671875 -8.546875 "/></g></g></g><g fill="#ffffff" fill-opacity="1"><g transform="translate(125.438285, 17.061364)"><g><path d="M 9.359375 -1.953125 L 9.359375 0 L 1.25 0 L 1.25 -10.484375 L 9.171875 -10.484375 L 9.171875 -8.546875 L 3.65625 -8.546875 L 3.65625 -6.265625 L 8.53125 -6.265625 L 8.53125 -4.375 L 3.65625 -4.375 L 3.65625 -1.953125 Z M 9.359375 -1.953125 "/></g></g></g><g fill="#ffffff" fill-opacity="1"><g transform="translate(44.12142, 29.997968)"><g><path d="M 8.78125 -8.828125 L 4.875 0 L 3.953125 0 L 0.03125 -8.828125 L 1.046875 -8.828125 L 4.421875 -1.15625 L 7.828125 -8.828125 Z M 8.78125 -8.828125 "/></g></g></g><g fill="#ffffff" fill-opacity="1"><g transform="translate(52.921121, 29.997968)"><g><path d="M 7.671875 -0.8125 L 7.671875 0 L 1.4375 0 L 1.4375 -8.828125 L 7.484375 -8.828125 L 7.484375 -8.015625 L 2.375 -8.015625 L 2.375 -4.875 L 6.9375 -4.875 L 6.9375 -4.078125 L 2.375 -4.078125 L 2.375 -0.8125 Z M 7.671875 -0.8125 "/></g></g></g><g fill="#ffffff" fill-opacity="1"><g transform="translate(61.355221, 29.997968)"><g><path d="M 7.46875 0 L 5.453125 -2.84375 C 5.222656 -2.8125 4.984375 -2.796875 4.734375 -2.796875 L 2.375 -2.796875 L 2.375 0 L 1.4375 0 L 1.4375 -8.828125 L 4.734375 -8.828125 C 5.867188 -8.828125 6.753906 -8.554688 7.390625 -8.015625 C 8.023438 -7.484375 8.34375 -6.742188 8.34375 -5.796875 C 8.34375 -5.109375 8.164062 -4.523438 7.8125 -4.046875 C 7.46875 -3.578125 6.972656 -3.238281 6.328125 -3.03125 L 8.484375 0 Z M 4.71875 -3.59375 C 5.59375 -3.59375 6.257812 -3.785156 6.71875 -4.171875 C 7.1875 -4.554688 7.421875 -5.097656 7.421875 -5.796875 C 7.421875 -6.515625 7.1875 -7.0625 6.71875 -7.4375 C 6.257812 -7.820312 5.59375 -8.015625 4.71875 -8.015625 L 2.375 -8.015625 L 2.375 -3.59375 Z M 4.71875 -3.59375 "/></g></g></g><g fill="#ffffff" fill-opacity="1"><g transform="translate(70.470097, 29.997968)"><g><path d="M 13.5625 -8.828125 L 10.578125 0 L 9.59375 0 L 7.015625 -7.53125 L 4.40625 0 L 3.4375 0 L 0.46875 -8.828125 L 1.421875 -8.828125 L 3.96875 -1.234375 L 6.609375 -8.828125 L 7.484375 -8.828125 L 10.078125 -1.203125 L 12.65625 -8.828125 Z M 13.5625 -8.828125 "/></g></g></g><g fill="#ffffff" fill-opacity="1"><g transform="translate(84.476499, 29.997968)"><g><path d="M 6.96875 -2.359375 L 2.0625 -2.359375 L 1 0 L 0.03125 0 L 4.0625 -8.828125 L 4.984375 -8.828125 L 9.015625 0 L 8.03125 0 Z M 6.625 -3.109375 L 4.515625 -7.859375 L 2.390625 -3.109375 Z M 6.625 -3.109375 "/></g></g></g><g fill="#ffffff" fill-opacity="1"><g transform="translate(93.515742, 29.997968)"><g><path d="M 1.4375 -8.828125 L 2.375 -8.828125 L 2.375 -0.8125 L 7.3125 -0.8125 L 7.3125 0 L 1.4375 0 Z M 1.4375 -8.828125 "/></g></g></g><g fill="#ffffff" fill-opacity="1"><g transform="translate(100.941285, 29.997968)"><g><path d="M 3.15625 -8.015625 L 0.046875 -8.015625 L 0.046875 -8.828125 L 7.1875 -8.828125 L 7.1875 -8.015625 L 4.078125 -8.015625 L 4.078125 0 L 3.15625 0 Z M 3.15625 -8.015625 "/></g></g></g><g fill="#ffffff" fill-opacity="1"><g transform="translate(108.177714, 29.997968)"><g><path d="M 5 0.078125 C 3.851562 0.078125 2.957031 -0.25 2.3125 -0.90625 C 1.675781 -1.5625 1.359375 -2.515625 1.359375 -3.765625 L 1.359375 -8.828125 L 2.296875 -8.828125 L 2.296875 -3.8125 C 2.296875 -2.78125 2.523438 -2.007812 2.984375 -1.5 C 3.453125 -1 4.125 -0.75 5 -0.75 C 5.875 -0.75 6.539062 -1 7 -1.5 C 7.46875 -2.007812 7.703125 -2.78125 7.703125 -3.8125 L 7.703125 -8.828125 L 8.609375 -8.828125 L 8.609375 -3.765625 C 8.609375 -2.515625 8.289062 -1.5625 7.65625 -0.90625 C 7.019531 -0.25 6.132812 0.078125 5 0.078125 Z M 5 0.078125 "/></g></g></g><g fill="#ffffff" fill-opacity="1"><g transform="translate(118.162482, 29.997968)"><g><path d="M 8.8125 -8.828125 L 8.8125 0 L 8.046875 0 L 2.375 -7.15625 L 2.375 0 L 1.4375 0 L 1.4375 -8.828125 L 2.203125 -8.828125 L 7.890625 -1.671875 L 7.890625 -8.828125 Z M 8.8125 -8.828125 "/></g></g></g><g fill="#ffffff" fill-opacity="1"><g transform="translate(128.412, 29.997968)"><g><path d="M 7.65625 -4.40625 L 8.546875 -4.40625 L 8.546875 -1.046875 C 8.140625 -0.679688 7.648438 -0.398438 7.078125 -0.203125 C 6.515625 -0.015625 5.925781 0.078125 5.3125 0.078125 C 4.425781 0.078125 3.628906 -0.113281 2.921875 -0.5 C 2.210938 -0.882812 1.65625 -1.421875 1.25 -2.109375 C 0.851562 -2.796875 0.65625 -3.5625 0.65625 -4.40625 C 0.65625 -5.257812 0.851562 -6.03125 1.25 -6.71875 C 1.65625 -7.40625 2.210938 -7.941406 2.921875 -8.328125 C 3.628906 -8.710938 4.429688 -8.90625 5.328125 -8.90625 C 5.992188 -8.90625 6.609375 -8.796875 7.171875 -8.578125 C 7.734375 -8.367188 8.207031 -8.050781 8.59375 -7.625 L 8.015625 -7.03125 C 7.316406 -7.71875 6.429688 -8.0625 5.359375 -8.0625 C 4.640625 -8.0625 3.992188 -7.90625 3.421875 -7.59375 C 2.847656 -7.28125 2.394531 -6.84375 2.0625 -6.28125 C 1.738281 -5.726562 1.578125 -5.101562 1.578125 -4.40625 C 1.578125 -3.71875 1.738281 -3.097656 2.0625 -2.546875 C 2.394531 -1.992188 2.847656 -1.554688 3.421875 -1.234375 C 3.992188 -0.910156 4.632812 -0.75 5.34375 -0.75 C 6.25 -0.75 7.019531 -0.976562 7.65625 -1.4375 Z M 7.65625 -4.40625 "/></g></g></g></svg>